<svg id="visual" viewBox="0 0 2000 2000" width="2000" height="2000" xmlns="http://www.w3.org/2000/svg" xmlns:xlink="http://www.w3.org/1999/xlink" version="1.1"><g stroke-width="1" stroke-linejoin="bevel"><path d="M971 986L817 770L791 1002Z" fill="#202d37" stroke="#202d37"></path><path d="M971 986L1021 793L817 770Z" fill="#14171b" stroke="#14171b"></path><path d="M817 770L621 774L791 1002Z" fill="#346075" stroke="#346075"></path><path d="M621 774L601 979L791 1002Z" fill="#181e24" stroke="#181e24"></path><path d="M1021 793L983 612L817 770Z" fill="#14171b" stroke="#14171b"></path><path d="M817 770L789 599L621 774Z" fill="#181e24" stroke="#181e24"></path><path d="M983 612L789 599L817 770Z" fill="#31576a" stroke="#31576a"></path><path d="M611 1208L770 1220L791 1002Z" fill="#14171b" stroke="#14171b"></path><path d="M791 1002L1016 1216L971 986Z" fill="#243541" stroke="#243541"></path><path d="M770 1220L1016 1216L791 1002Z" fill="#1c262d" stroke="#1c262d"></path><path d="M971 986L1218 989L1021 793Z" fill="#346075" stroke="#346075"></path><path d="M1016 1216L1218 989L971 986Z" fill="#181e24" stroke="#181e24"></path><path d="M1021 793L1196 582L983 612Z" fill="#2b4655" stroke="#2b4655"></path><path d="M1218 989L1224 790L1021 793Z" fill="#243541" stroke="#243541"></path><path d="M601 979L611 1208L791 1002Z" fill="#243541" stroke="#243541"></path><path d="M769 424L589 579L789 599Z" fill="#346075" stroke="#346075"></path><path d="M789 599L589 579L621 774Z" fill="#14171b" stroke="#14171b"></path><path d="M381 826L397 1003L601 979Z" fill="#2e4e60" stroke="#2e4e60"></path><path d="M1016 1216L1224 1170L1218 989Z" fill="#14171b" stroke="#14171b"></path><path d="M1218 989L1377 970L1224 790Z" fill="#2b4655" stroke="#2b4655"></path><path d="M1224 790L1196 582L1021 793Z" fill="#283d4b" stroke="#283d4b"></path><path d="M983 612L769 424L789 599Z" fill="#31576a" stroke="#31576a"></path><path d="M1026 414L769 424L983 612Z" fill="#2b4655" stroke="#2b4655"></path><path d="M381 826L601 979L621 774Z" fill="#346075" stroke="#346075"></path><path d="M601 979L414 1200L611 1208Z" fill="#2b4655" stroke="#2b4655"></path><path d="M377 578L381 826L621 774Z" fill="#181e24" stroke="#181e24"></path><path d="M611 1208L785 1384L770 1220Z" fill="#346075" stroke="#346075"></path><path d="M770 1220L785 1384L1016 1216Z" fill="#181e24" stroke="#181e24"></path><path d="M1016 1216L1180 1428L1224 1170Z" fill="#31576a" stroke="#31576a"></path><path d="M601 1415L785 1384L611 1208Z" fill="#243541" stroke="#243541"></path><path d="M1196 582L1026 414L983 612Z" fill="#202d37" stroke="#202d37"></path><path d="M1224 1170L1377 970L1218 989Z" fill="#181e24" stroke="#181e24"></path><path d="M1224 790L1415 625L1196 582Z" fill="#283d4b" stroke="#283d4b"></path><path d="M1377 970L1395 793L1224 790Z" fill="#1c262d" stroke="#1c262d"></path><path d="M769 424L615 422L589 579Z" fill="#14171b" stroke="#14171b"></path><path d="M589 579L377 578L621 774Z" fill="#1c262d" stroke="#1c262d"></path><path d="M802 218L615 422L769 424Z" fill="#31576a" stroke="#31576a"></path><path d="M222 1211L414 1200L397 1003Z" fill="#346075" stroke="#346075"></path><path d="M397 1003L414 1200L601 979Z" fill="#31576a" stroke="#31576a"></path><path d="M785 1384L1006 1429L1016 1216Z" fill="#14171b" stroke="#14171b"></path><path d="M402 419L377 578L589 579Z" fill="#14171b" stroke="#14171b"></path><path d="M414 1200L601 1415L611 1208Z" fill="#14171b" stroke="#14171b"></path><path d="M785 1384L784 1608L1006 1429Z" fill="#243541" stroke="#243541"></path><path d="M1386 1430L1387 1193L1224 1170Z" fill="#346075" stroke="#346075"></path><path d="M1224 1170L1387 1193L1377 970Z" fill="#283d4b" stroke="#283d4b"></path><path d="M1377 970L1570 982L1395 793Z" fill="#181e24" stroke="#181e24"></path><path d="M1395 793L1415 625L1224 790Z" fill="#346075" stroke="#346075"></path><path d="M1196 582L1230 386L1026 414Z" fill="#243541" stroke="#243541"></path><path d="M1589 795L1415 625L1395 793Z" fill="#243541" stroke="#243541"></path><path d="M1006 1429L1180 1428L1016 1216Z" fill="#346075" stroke="#346075"></path><path d="M1417 427L1230 386L1196 582Z" fill="#243541" stroke="#243541"></path><path d="M1026 414L802 218L769 424Z" fill="#31576a" stroke="#31576a"></path><path d="M381 228L402 419L615 422Z" fill="#283d4b" stroke="#283d4b"></path><path d="M615 422L402 419L589 579Z" fill="#2b4655" stroke="#2b4655"></path><path d="M1020 177L802 218L1026 414Z" fill="#2b4655" stroke="#2b4655"></path><path d="M377 578L196 775L381 826Z" fill="#31576a" stroke="#31576a"></path><path d="M381 826L185 1029L397 1003Z" fill="#202d37" stroke="#202d37"></path><path d="M195 582L196 775L377 578Z" fill="#243541" stroke="#243541"></path><path d="M196 775L185 1029L381 826Z" fill="#243541" stroke="#243541"></path><path d="M414 1200L375 1395L601 1415Z" fill="#31576a" stroke="#31576a"></path><path d="M1387 1193L1570 982L1377 970Z" fill="#14171b" stroke="#14171b"></path><path d="M222 1211L375 1395L414 1200Z" fill="#1c262d" stroke="#1c262d"></path><path d="M1606 580L1417 427L1415 625Z" fill="#181e24" stroke="#181e24"></path><path d="M1415 625L1417 427L1196 582Z" fill="#1c262d" stroke="#1c262d"></path><path d="M1193 183L1020 177L1026 414Z" fill="#181e24" stroke="#181e24"></path><path d="M597 1629L784 1608L601 1415Z" fill="#202d37" stroke="#202d37"></path><path d="M601 1415L784 1608L785 1384Z" fill="#181e24" stroke="#181e24"></path><path d="M1006 1429L1192 1582L1180 1428Z" fill="#14171b" stroke="#14171b"></path><path d="M784 1608L973 1609L1006 1429Z" fill="#2b4655" stroke="#2b4655"></path><path d="M185 1029L222 1211L397 1003Z" fill="#243541" stroke="#243541"></path><path d="M1570 982L1589 795L1395 793Z" fill="#31576a" stroke="#31576a"></path><path d="M1193 183L1026 414L1230 386Z" fill="#2e4e60" stroke="#2e4e60"></path><path d="M1180 1428L1386 1430L1224 1170Z" fill="#1c262d" stroke="#1c262d"></path><path d="M1387 1193L1571 1206L1570 982Z" fill="#2b4655" stroke="#2b4655"></path><path d="M1192 1582L1386 1430L1180 1428Z" fill="#0d0f11" stroke="#0d0f11"></path><path d="M228 370L195 582L377 578Z" fill="#2b4655" stroke="#2b4655"></path><path d="M196 775L0 801L185 1029Z" fill="#243541" stroke="#243541"></path><path d="M770 0L629 176L802 218Z" fill="#2e4e60" stroke="#2e4e60"></path><path d="M802 218L629 176L615 422Z" fill="#346075" stroke="#346075"></path><path d="M402 419L228 370L377 578Z" fill="#283d4b" stroke="#283d4b"></path><path d="M973 1609L1192 1582L1006 1429Z" fill="#202d37" stroke="#202d37"></path><path d="M1386 1430L1571 1206L1387 1193Z" fill="#31576a" stroke="#31576a"></path><path d="M1570 982L1776 1008L1589 795Z" fill="#243541" stroke="#243541"></path><path d="M1385 199L1193 183L1230 386Z" fill="#1c262d" stroke="#1c262d"></path><path d="M379 1629L597 1629L601 1415Z" fill="#283d4b" stroke="#283d4b"></path><path d="M787 1802L1002 1771L973 1609Z" fill="#0d0f11" stroke="#0d0f11"></path><path d="M1589 795L1606 580L1415 625Z" fill="#181e24" stroke="#181e24"></path><path d="M1417 427L1385 199L1230 386Z" fill="#2e4e60" stroke="#2e4e60"></path><path d="M1803 797L1606 580L1589 795Z" fill="#2b4655" stroke="#2b4655"></path><path d="M629 176L381 228L615 422Z" fill="#14171b" stroke="#14171b"></path><path d="M381 228L228 370L402 419Z" fill="#283d4b" stroke="#283d4b"></path><path d="M1606 580L1571 405L1417 427Z" fill="#283d4b" stroke="#283d4b"></path><path d="M222 1211L192 1414L375 1395Z" fill="#14171b" stroke="#14171b"></path><path d="M375 1395L379 1629L601 1415Z" fill="#31576a" stroke="#31576a"></path><path d="M0 1187L192 1414L222 1211Z" fill="#283d4b" stroke="#283d4b"></path><path d="M1571 405L1385 199L1417 427Z" fill="#14171b" stroke="#14171b"></path><path d="M0 620L196 775L195 582Z" fill="#0d0f11" stroke="#0d0f11"></path><path d="M0 620L0 801L196 775Z" fill="#1c262d" stroke="#1c262d"></path><path d="M185 1029L0 1187L222 1211Z" fill="#346075" stroke="#346075"></path><path d="M0 801L0 1028L185 1029Z" fill="#346075" stroke="#346075"></path><path d="M192 1414L379 1629L375 1395Z" fill="#1c262d" stroke="#1c262d"></path><path d="M787 1802L973 1609L784 1608Z" fill="#346075" stroke="#346075"></path><path d="M973 1609L1002 1771L1192 1582Z" fill="#243541" stroke="#243541"></path><path d="M1192 1582L1386 1625L1386 1430Z" fill="#1c262d" stroke="#1c262d"></path><path d="M787 1802L784 1608L597 1629Z" fill="#0d0f11" stroke="#0d0f11"></path><path d="M1220 1811L1386 1625L1192 1582Z" fill="#1c262d" stroke="#1c262d"></path><path d="M1386 1430L1624 1405L1571 1206Z" fill="#14171b" stroke="#14171b"></path><path d="M1020 177L770 0L802 218Z" fill="#2b4655" stroke="#2b4655"></path><path d="M629 176L414 0L381 228Z" fill="#181e24" stroke="#181e24"></path><path d="M1024 0L770 0L1020 177Z" fill="#202d37" stroke="#202d37"></path><path d="M1024 0L1020 177L1194 0Z" fill="#0d0f11" stroke="#0d0f11"></path><path d="M1194 0L1020 177L1193 183Z" fill="#283d4b" stroke="#283d4b"></path><path d="M1602 1596L1624 1405L1386 1430Z" fill="#202d37" stroke="#202d37"></path><path d="M1571 1206L1776 1008L1570 982Z" fill="#31576a" stroke="#31576a"></path><path d="M1823 1226L1776 1008L1571 1206Z" fill="#2b4655" stroke="#2b4655"></path><path d="M1606 580L1794 429L1571 405Z" fill="#1c262d" stroke="#1c262d"></path><path d="M629 1821L787 1802L597 1629Z" fill="#181e24" stroke="#181e24"></path><path d="M0 394L0 620L195 582Z" fill="#202d37" stroke="#202d37"></path><path d="M0 1028L0 1187L185 1029Z" fill="#243541" stroke="#243541"></path><path d="M770 0L627 0L629 176Z" fill="#181e24" stroke="#181e24"></path><path d="M1776 1008L1803 797L1589 795Z" fill="#1c262d" stroke="#1c262d"></path><path d="M1385 199L1194 0L1193 183Z" fill="#346075" stroke="#346075"></path><path d="M384 1808L629 1821L597 1629Z" fill="#283d4b" stroke="#283d4b"></path><path d="M381 228L197 200L228 370Z" fill="#346075" stroke="#346075"></path><path d="M228 370L0 394L195 582Z" fill="#283d4b" stroke="#283d4b"></path><path d="M414 0L197 200L381 228Z" fill="#346075" stroke="#346075"></path><path d="M1002 1771L1220 1811L1192 1582Z" fill="#346075" stroke="#346075"></path><path d="M1386 1625L1602 1596L1386 1430Z" fill="#2b4655" stroke="#2b4655"></path><path d="M1023 2000L1220 1811L1002 1771Z" fill="#283d4b" stroke="#283d4b"></path><path d="M1023 2000L1002 1771L787 1802Z" fill="#0d0f11" stroke="#0d0f11"></path><path d="M1803 797L1820 613L1606 580Z" fill="#1c262d" stroke="#1c262d"></path><path d="M1571 405L1603 179L1385 199Z" fill="#2b4655" stroke="#2b4655"></path><path d="M1385 199L1422 0L1194 0Z" fill="#1c262d" stroke="#1c262d"></path><path d="M192 1414L195 1623L379 1629Z" fill="#2b4655" stroke="#2b4655"></path><path d="M379 1629L384 1808L597 1629Z" fill="#1c262d" stroke="#1c262d"></path><path d="M0 1423L195 1623L192 1414Z" fill="#181e24" stroke="#181e24"></path><path d="M627 0L414 0L629 176Z" fill="#2b4655" stroke="#2b4655"></path><path d="M197 200L0 394L228 370Z" fill="#14171b" stroke="#14171b"></path><path d="M1797 1405L1823 1226L1624 1405Z" fill="#202d37" stroke="#202d37"></path><path d="M1624 1405L1823 1226L1571 1206Z" fill="#1c262d" stroke="#1c262d"></path><path d="M2000 995L2000 821L1803 797Z" fill="#2b4655" stroke="#2b4655"></path><path d="M1803 797L2000 821L1820 613Z" fill="#243541" stroke="#243541"></path><path d="M1426 1774L1602 1596L1386 1625Z" fill="#243541" stroke="#243541"></path><path d="M0 1187L0 1423L192 1414Z" fill="#181e24" stroke="#181e24"></path><path d="M1807 201L1603 179L1571 405Z" fill="#31576a" stroke="#31576a"></path><path d="M1820 613L1794 429L1606 580Z" fill="#1c262d" stroke="#1c262d"></path><path d="M195 1623L384 1808L379 1629Z" fill="#283d4b" stroke="#283d4b"></path><path d="M1220 1811L1426 1774L1386 1625Z" fill="#2e4e60" stroke="#2e4e60"></path><path d="M1603 179L1422 0L1385 199Z" fill="#2b4655" stroke="#2b4655"></path><path d="M1806 1615L1797 1405L1602 1596Z" fill="#0d0f11" stroke="#0d0f11"></path><path d="M1602 1596L1797 1405L1624 1405Z" fill="#1c262d" stroke="#1c262d"></path><path d="M607 2000L783 2000L629 1821Z" fill="#1c262d" stroke="#1c262d"></path><path d="M629 1821L783 2000L787 1802Z" fill="#14171b" stroke="#14171b"></path><path d="M1220 1811L1413 2000L1426 1774Z" fill="#1c262d" stroke="#1c262d"></path><path d="M179 0L0 201L197 200Z" fill="#2e4e60" stroke="#2e4e60"></path><path d="M197 200L0 201L0 394Z" fill="#346075" stroke="#346075"></path><path d="M783 2000L1023 2000L787 1802Z" fill="#0d0f11" stroke="#0d0f11"></path><path d="M2000 995L1776 1008L2000 1198Z" fill="#243541" stroke="#243541"></path><path d="M2000 995L1803 797L1776 1008Z" fill="#346075" stroke="#346075"></path><path d="M1820 613L2000 591L1794 429Z" fill="#2e4e60" stroke="#2e4e60"></path><path d="M414 0L179 0L197 200Z" fill="#1c262d" stroke="#1c262d"></path><path d="M2000 1198L1776 1008L1823 1226Z" fill="#0d0f11" stroke="#0d0f11"></path><path d="M195 1623L169 1823L384 1808Z" fill="#283d4b" stroke="#283d4b"></path><path d="M0 1423L0 1623L195 1623Z" fill="#2e4e60" stroke="#2e4e60"></path><path d="M403 2000L607 2000L629 1821Z" fill="#2b4655" stroke="#2b4655"></path><path d="M403 2000L629 1821L384 1808Z" fill="#2b4655" stroke="#2b4655"></path><path d="M1603 179L1595 0L1422 0Z" fill="#31576a" stroke="#31576a"></path><path d="M1773 0L1595 0L1603 179Z" fill="#181e24" stroke="#181e24"></path><path d="M1807 201L1571 405L1794 429Z" fill="#283d4b" stroke="#283d4b"></path><path d="M1023 2000L1215 2000L1220 1811Z" fill="#2e4e60" stroke="#2e4e60"></path><path d="M1811 1773L1806 1615L1602 1596Z" fill="#1c262d" stroke="#1c262d"></path><path d="M2000 421L1807 201L1794 429Z" fill="#2e4e60" stroke="#2e4e60"></path><path d="M0 1797L169 1823L195 1623Z" fill="#14171b" stroke="#14171b"></path><path d="M2000 821L2000 591L1820 613Z" fill="#31576a" stroke="#31576a"></path><path d="M2000 1418L1823 1226L1797 1405Z" fill="#1c262d" stroke="#1c262d"></path><path d="M2000 1418L2000 1198L1823 1226Z" fill="#2b4655" stroke="#2b4655"></path><path d="M1625 1821L1602 1596L1426 1774Z" fill="#202d37" stroke="#202d37"></path><path d="M1413 2000L1625 1821L1426 1774Z" fill="#14171b" stroke="#14171b"></path><path d="M220 2000L403 2000L384 1808Z" fill="#14171b" stroke="#14171b"></path><path d="M2000 591L2000 421L1794 429Z" fill="#2b4655" stroke="#2b4655"></path><path d="M1215 2000L1413 2000L1220 1811Z" fill="#1c262d" stroke="#1c262d"></path><path d="M2000 1588L1797 1405L1806 1615Z" fill="#283d4b" stroke="#283d4b"></path><path d="M2000 1588L2000 1418L1797 1405Z" fill="#283d4b" stroke="#283d4b"></path><path d="M179 0L0 0L0 201Z" fill="#2e4e60" stroke="#2e4e60"></path><path d="M0 1623L0 1797L195 1623Z" fill="#31576a" stroke="#31576a"></path><path d="M169 1823L220 2000L384 1808Z" fill="#31576a" stroke="#31576a"></path><path d="M2000 0L1773 0L1807 201Z" fill="#1c262d" stroke="#1c262d"></path><path d="M1807 201L1773 0L1603 179Z" fill="#283d4b" stroke="#283d4b"></path><path d="M0 2000L220 2000L169 1823Z" fill="#346075" stroke="#346075"></path><path d="M1625 1821L1811 1773L1602 1596Z" fill="#31576a" stroke="#31576a"></path><path d="M1775 2000L1811 1773L1625 1821Z" fill="#14171b" stroke="#14171b"></path><path d="M2000 1773L2000 1588L1806 1615Z" fill="#31576a" stroke="#31576a"></path><path d="M1413 2000L1610 2000L1625 1821Z" fill="#202d37" stroke="#202d37"></path><path d="M1811 1773L2000 1773L1806 1615Z" fill="#1c262d" stroke="#1c262d"></path><path d="M2000 421L2000 185L1807 201Z" fill="#346075" stroke="#346075"></path><path d="M0 1797L0 2000L169 1823Z" fill="#2b4655" stroke="#2b4655"></path><path d="M1610 2000L1775 2000L1625 1821Z" fill="#31576a" stroke="#31576a"></path><path d="M2000 2000L2000 1773L1811 1773Z" fill="#1c262d" stroke="#1c262d"></path><path d="M2000 185L2000 0L1807 201Z" fill="#181e24" stroke="#181e24"></path><path d="M1775 2000L2000 2000L1811 1773Z" fill="#1c262d" stroke="#1c262d"></path></g></svg>