<svg id="visual" viewBox="0 0 900 600" width="900" height="600" xmlns="http://www.w3.org/2000/svg" xmlns:xlink="http://www.w3.org/1999/xlink" version="1.1"><g stroke-width="1" stroke-linejoin="bevel"><path d="M389 331L373 396L465 372Z" fill="#eef3f5" stroke="#eef3f5"></path><path d="M389 331L327 408L373 396Z" fill="#bed6e2" stroke="#bed6e2"></path><path d="M327 408L413 520L373 396Z" fill="#a6c8d8" stroke="#a6c8d8"></path><path d="M373 396L413 520L465 372Z" fill="#8dbacf" stroke="#8dbacf"></path><path d="M584 307L532 280L465 372Z" fill="#e2ebf0" stroke="#e2ebf0"></path><path d="M465 372L507 238L389 331Z" fill="#80b3ca" stroke="#80b3ca"></path><path d="M392 172L301 277L389 331Z" fill="#99c1d4" stroke="#99c1d4"></path><path d="M389 331L301 277L327 408Z" fill="#e2ebf0" stroke="#e2ebf0"></path><path d="M413 520L489 507L465 372Z" fill="#80b3ca" stroke="#80b3ca"></path><path d="M532 280L507 238L465 372Z" fill="#e2ebf0" stroke="#e2ebf0"></path><path d="M489 507L581 417L465 372Z" fill="#fafafa" stroke="#fafafa"></path><path d="M581 417L584 307L465 372Z" fill="#8dbacf" stroke="#8dbacf"></path><path d="M532 280L582 200L507 238Z" fill="#fafafa" stroke="#fafafa"></path><path d="M301 277L230 434L327 408Z" fill="#eef3f5" stroke="#eef3f5"></path><path d="M327 408L260 511L413 520Z" fill="#d6e4ec" stroke="#d6e4ec"></path><path d="M507 238L392 172L389 331Z" fill="#8dbacf" stroke="#8dbacf"></path><path d="M524 600L583 495L489 507Z" fill="#d6e4ec" stroke="#d6e4ec"></path><path d="M489 507L583 495L581 417Z" fill="#fafafa" stroke="#fafafa"></path><path d="M726 415L684 275L584 307Z" fill="#99c1d4" stroke="#99c1d4"></path><path d="M230 434L260 511L327 408Z" fill="#fafafa" stroke="#fafafa"></path><path d="M392 172L265 205L301 277Z" fill="#99c1d4" stroke="#99c1d4"></path><path d="M301 277L193 288L230 434Z" fill="#99c1d4" stroke="#99c1d4"></path><path d="M260 511L381 600L413 520Z" fill="#b2cfdd" stroke="#b2cfdd"></path><path d="M413 520L524 600L489 507Z" fill="#d6e4ec" stroke="#d6e4ec"></path><path d="M265 205L193 288L301 277Z" fill="#eef3f5" stroke="#eef3f5"></path><path d="M584 307L582 200L532 280Z" fill="#8dbacf" stroke="#8dbacf"></path><path d="M507 238L474 133L392 172Z" fill="#80b3ca" stroke="#80b3ca"></path><path d="M582 200L474 133L507 238Z" fill="#bed6e2" stroke="#bed6e2"></path><path d="M392 172L304 132L265 205Z" fill="#a6c8d8" stroke="#a6c8d8"></path><path d="M381 600L524 600L413 520Z" fill="#d6e4ec" stroke="#d6e4ec"></path><path d="M260 511L287 600L381 600Z" fill="#eef3f5" stroke="#eef3f5"></path><path d="M228 600L287 600L260 511Z" fill="#80b3ca" stroke="#80b3ca"></path><path d="M388 107L304 132L392 172Z" fill="#d6e4ec" stroke="#d6e4ec"></path><path d="M265 205L192 178L193 288Z" fill="#fafafa" stroke="#fafafa"></path><path d="M614 600L663 470L583 495Z" fill="#a6c8d8" stroke="#a6c8d8"></path><path d="M583 495L663 470L581 417Z" fill="#eef3f5" stroke="#eef3f5"></path><path d="M584 307L684 275L582 200Z" fill="#bed6e2" stroke="#bed6e2"></path><path d="M474 133L388 107L392 172Z" fill="#eef3f5" stroke="#eef3f5"></path><path d="M106 526L188 534L230 434Z" fill="#d6e4ec" stroke="#d6e4ec"></path><path d="M230 434L188 534L260 511Z" fill="#e2ebf0" stroke="#e2ebf0"></path><path d="M726 415L584 307L581 417Z" fill="#eef3f5" stroke="#eef3f5"></path><path d="M188 534L228 600L260 511Z" fill="#8dbacf" stroke="#8dbacf"></path><path d="M304 132L192 178L265 205Z" fill="#a6c8d8" stroke="#a6c8d8"></path><path d="M193 288L125 315L230 434Z" fill="#fafafa" stroke="#fafafa"></path><path d="M78 174L125 315L193 288Z" fill="#bed6e2" stroke="#bed6e2"></path><path d="M524 600L614 600L583 495Z" fill="#fafafa" stroke="#fafafa"></path><path d="M818 539L726 415L663 470Z" fill="#bed6e2" stroke="#bed6e2"></path><path d="M663 470L726 415L581 417Z" fill="#fafafa" stroke="#fafafa"></path><path d="M763 265L702 235L684 275Z" fill="#bed6e2" stroke="#bed6e2"></path><path d="M684 275L702 235L582 200Z" fill="#bed6e2" stroke="#bed6e2"></path><path d="M582 200L626 131L474 133Z" fill="#b2cfdd" stroke="#b2cfdd"></path><path d="M702 235L626 131L582 200Z" fill="#99c1d4" stroke="#99c1d4"></path><path d="M514 0L370 0L388 107Z" fill="#a6c8d8" stroke="#a6c8d8"></path><path d="M125 315L95 378L230 434Z" fill="#e2ebf0" stroke="#e2ebf0"></path><path d="M95 378L106 526L230 434Z" fill="#e2ebf0" stroke="#e2ebf0"></path><path d="M188 534L62 600L228 600Z" fill="#a6c8d8" stroke="#a6c8d8"></path><path d="M304 132L187 112L192 178Z" fill="#fafafa" stroke="#fafafa"></path><path d="M192 178L78 174L193 288Z" fill="#8dbacf" stroke="#8dbacf"></path><path d="M0 289L0 424L95 378Z" fill="#e2ebf0" stroke="#e2ebf0"></path><path d="M335 0L187 112L304 132Z" fill="#b2cfdd" stroke="#b2cfdd"></path><path d="M900 436L772 360L726 415Z" fill="#a6c8d8" stroke="#a6c8d8"></path><path d="M726 415L772 360L684 275Z" fill="#bed6e2" stroke="#bed6e2"></path><path d="M772 360L763 265L684 275Z" fill="#a6c8d8" stroke="#a6c8d8"></path><path d="M702 235L735 93L626 131Z" fill="#e2ebf0" stroke="#e2ebf0"></path><path d="M614 600L703 600L663 470Z" fill="#99c1d4" stroke="#99c1d4"></path><path d="M514 0L388 107L474 133Z" fill="#eef3f5" stroke="#eef3f5"></path><path d="M388 107L335 0L304 132Z" fill="#cadde7" stroke="#cadde7"></path><path d="M763 265L762 218L702 235Z" fill="#bed6e2" stroke="#bed6e2"></path><path d="M779 109L762 218L900 169Z" fill="#cadde7" stroke="#cadde7"></path><path d="M370 0L335 0L388 107Z" fill="#cadde7" stroke="#cadde7"></path><path d="M626 131L514 0L474 133Z" fill="#e2ebf0" stroke="#e2ebf0"></path><path d="M592 0L514 0L626 131Z" fill="#8dbacf" stroke="#8dbacf"></path><path d="M120 72L78 174L187 112Z" fill="#eef3f5" stroke="#eef3f5"></path><path d="M187 112L78 174L192 178Z" fill="#b2cfdd" stroke="#b2cfdd"></path><path d="M95 378L0 474L106 526Z" fill="#8dbacf" stroke="#8dbacf"></path><path d="M716 0L592 0L626 131Z" fill="#bed6e2" stroke="#bed6e2"></path><path d="M0 289L95 378L125 315Z" fill="#eef3f5" stroke="#eef3f5"></path><path d="M0 474L62 600L106 526Z" fill="#e2ebf0" stroke="#e2ebf0"></path><path d="M106 526L62 600L188 534Z" fill="#cadde7" stroke="#cadde7"></path><path d="M166 0L120 72L187 112Z" fill="#99c1d4" stroke="#99c1d4"></path><path d="M762 218L735 93L702 235Z" fill="#99c1d4" stroke="#99c1d4"></path><path d="M0 226L125 315L78 174Z" fill="#fafafa" stroke="#fafafa"></path><path d="M0 226L0 289L125 315Z" fill="#eef3f5" stroke="#eef3f5"></path><path d="M0 424L0 474L95 378Z" fill="#80b3ca" stroke="#80b3ca"></path><path d="M703 600L818 539L663 470Z" fill="#fafafa" stroke="#fafafa"></path><path d="M900 169L762 218L763 265Z" fill="#80b3ca" stroke="#80b3ca"></path><path d="M0 93L0 226L78 174Z" fill="#eef3f5" stroke="#eef3f5"></path><path d="M335 0L166 0L187 112Z" fill="#99c1d4" stroke="#99c1d4"></path><path d="M120 72L0 93L78 174Z" fill="#d6e4ec" stroke="#d6e4ec"></path><path d="M900 314L763 265L772 360Z" fill="#cadde7" stroke="#cadde7"></path><path d="M762 218L779 109L735 93Z" fill="#bed6e2" stroke="#bed6e2"></path><path d="M735 93L716 0L626 131Z" fill="#e2ebf0" stroke="#e2ebf0"></path><path d="M166 0L132 0L120 72Z" fill="#cadde7" stroke="#cadde7"></path><path d="M703 600L826 600L818 539Z" fill="#99c1d4" stroke="#99c1d4"></path><path d="M900 436L900 314L772 360Z" fill="#bed6e2" stroke="#bed6e2"></path><path d="M0 474L0 600L62 600Z" fill="#80b3ca" stroke="#80b3ca"></path><path d="M773 0L716 0L735 93Z" fill="#8dbacf" stroke="#8dbacf"></path><path d="M900 436L726 415L818 539Z" fill="#e2ebf0" stroke="#e2ebf0"></path><path d="M779 109L773 0L735 93Z" fill="#d6e4ec" stroke="#d6e4ec"></path><path d="M900 505L900 436L818 539Z" fill="#99c1d4" stroke="#99c1d4"></path><path d="M0 0L0 93L120 72Z" fill="#b2cfdd" stroke="#b2cfdd"></path><path d="M900 600L900 505L818 539Z" fill="#cadde7" stroke="#cadde7"></path><path d="M900 95L773 0L779 109Z" fill="#eef3f5" stroke="#eef3f5"></path><path d="M900 314L900 169L763 265Z" fill="#eef3f5" stroke="#eef3f5"></path><path d="M826 600L900 600L818 539Z" fill="#bed6e2" stroke="#bed6e2"></path><path d="M900 169L900 95L779 109Z" fill="#99c1d4" stroke="#99c1d4"></path><path d="M132 0L0 0L120 72Z" fill="#8dbacf" stroke="#8dbacf"></path><path d="M900 95L900 0L773 0Z" fill="#b2cfdd" stroke="#b2cfdd"></path></g></svg>